# xmcd CD database file
#
# Track frame offsets:
#	150
#	16043
#	35853
#	49896
#	69723
#	87603
#	103908
#	120212
#	138367
#	159207
#	180756
#	193077
#	211530
#	223475
#	253862
#	270395
#	282105
#	307411
#
# Disc length: 4376 seconds
#
# Revision: 0
# Processed by: cddbd v1.5PL3 Copyright (c) Steve Scherf et al.
# Submitted via: CDex 1.60beta1
#
DISCID=09111612
DTITLE=Joe Sullivan - Piano Solo
DYEAR=2000
DGENRE=Jazz
TTITLE0=Little Rock Getaway
TTITLE1=Honeysuckle Rose
TTITLE2=Chicago
TTITLE3=On the Sunny Side of the Street
TTITLE4=Exactly Like You
TTITLE5=Squeeze Me
TTITLE6=Fidgety Feet
TTITLE7=I Got It Bad (And That Ain't Good)
TTITLE8=My Little Pride and Joy
TTITLE9=Just Strolling
TTITLE10=I've Found a New Baby
TTITLE11=Someday, Sweetheart
TTITLE12=Wrap Your Troubles in Dreams (And Dream Your Troubles Away)
TTITLE13=Blues for McCoys
TTITLE14=Keepin' Out of Mischief Now
TTITLE15=I'm Gonna Stomp Mr. Henry Lee
TTITLE16=Ain't Misbehavin'
TTITLE17=St. Louis Blues
EXTD=YEAR: 2000
EXTT0=
EXTT1=
EXTT2=
EXTT3=
EXTT4=
EXTT5=
EXTT6=
EXTT7=
EXTT8=
EXTT9=
EXTT10=
EXTT11=
EXTT12=
EXTT13=
EXTT14=
EXTT15=
EXTT16=
EXTT17=
PLAYORDER=
